<svg width="20" height="21" viewBox="0 0 20 21" fill="none" xmlns="http://www.w3.org/2000/svg">
<mask id="mask0_66_262" style="mask-type:alpha" maskUnits="userSpaceOnUse" x="0" y="0" width="20" height="21">
<rect y="0.5" width="20" height="20" fill="#D9D9D9"/>
</mask>
<g mask="url(#mask0_66_262)">
<path d="M3.42959 16.9102V9.34605H3.34938C2.99785 9.34605 2.69896 9.22293 2.45271 8.97668C2.20646 8.73043 2.08334 8.43161 2.08334 8.08022V6.26918C2.08334 5.91779 2.20646 5.61897 2.45271 5.37272C2.69896 5.12647 2.99785 5.00334 3.34938 5.00334H6.39271C6.27521 4.86765 6.19535 4.7148 6.15313 4.5448C6.11091 4.37494 6.08979 4.19654 6.08979 4.00959C6.08979 3.3864 6.30792 2.85668 6.74417 2.42043C7.18042 1.98418 7.71014 1.76605 8.33334 1.76605C8.65278 1.76605 8.94875 1.83307 9.22125 1.96709C9.49361 2.10126 9.73716 2.2805 9.95188 2.5048C10.1666 2.27188 10.4102 2.09057 10.6827 1.96084C10.9551 1.83098 11.251 1.76605 11.5704 1.76605C12.1938 1.76605 12.7235 1.98418 13.1598 2.42043C13.596 2.85668 13.8142 3.3864 13.8142 4.00959C13.8142 4.19445 13.7909 4.37022 13.7444 4.53689C13.6978 4.70355 13.6201 4.85904 13.5113 5.00334H16.6506C17.0022 5.00334 17.301 5.12647 17.5473 5.37272C17.7935 5.61897 17.9167 5.91779 17.9167 6.26918V8.08022C17.9167 8.43161 17.7935 8.73043 17.5473 8.97668C17.301 9.22293 17.0022 9.34605 16.6506 9.34605H16.5704V16.9102C16.5704 17.3245 16.4229 17.6792 16.1279 17.9742C15.8329 18.2692 15.4783 18.4167 15.0642 18.4167H4.93584C4.52167 18.4167 4.16709 18.2692 3.87209 17.9742C3.57709 17.6792 3.42959 17.3245 3.42959 16.9102ZM11.5704 3.01605C11.2889 3.01605 11.0529 3.11126 10.8625 3.30168C10.6721 3.49209 10.5769 3.72807 10.5769 4.00959C10.5769 4.29112 10.6721 4.52709 10.8625 4.71751C11.0529 4.90807 11.2889 5.00334 11.5704 5.00334C11.8519 5.00334 12.088 4.90807 12.2785 4.71751C12.469 4.52709 12.5642 4.29112 12.5642 4.00959C12.5642 3.72807 12.469 3.49209 12.2785 3.30168C12.088 3.11126 11.8519 3.01605 11.5704 3.01605ZM7.33979 4.00959C7.33979 4.29112 7.435 4.52709 7.62542 4.71751C7.81584 4.90807 8.05181 5.00334 8.33334 5.00334C8.61486 5.00334 8.85084 4.90807 9.04125 4.71751C9.23167 4.52709 9.32688 4.29112 9.32688 4.00959C9.32688 3.72807 9.23167 3.49209 9.04125 3.30168C8.85084 3.11126 8.61486 3.01605 8.33334 3.01605C8.05181 3.01605 7.81584 3.11126 7.62542 3.30168C7.435 3.49209 7.33979 3.72807 7.33979 4.00959ZM3.33334 6.25314V8.09626H9.375V6.25314H3.33334ZM9.375 17.1667V9.34605H4.67938V16.9102C4.67938 16.9851 4.70347 17.0465 4.75167 17.0946C4.79972 17.1426 4.86111 17.1667 4.93584 17.1667H9.375ZM10.625 17.1667H15.0642C15.1389 17.1667 15.2003 17.1426 15.2483 17.0946C15.2965 17.0465 15.3206 16.9851 15.3206 16.9102V9.34605H10.625V17.1667ZM16.6667 8.09626V6.25314H10.625V8.09626H16.6667Z" fill="white"/>
</g>
</svg>
